<svg width="22" height="21" viewBox="0 0 22 21" fill="none" xmlns="http://www.w3.org/2000/svg">
<path d="M10.5245 1.27767C10.6741 0.817019 11.3259 0.817018 11.4755 1.27767L13.5819 7.76045C13.6488 7.96646 13.8408 8.10594 14.0574 8.10594H20.8738C21.3582 8.10594 21.5596 8.72575 21.1677 9.01045L15.6531 13.017C15.4779 13.1444 15.4046 13.37 15.4715 13.576L17.5779 20.0588C17.7276 20.5195 17.2003 20.9025 16.8085 20.6178L11.2939 16.6113C11.1186 16.4839 10.8814 16.4839 10.7061 16.6113L5.19153 20.6178C4.79967 20.9025 4.27243 20.5195 4.42211 20.0588L6.52849 13.576C6.59543 13.37 6.5221 13.1444 6.34685 13.017L0.832272 9.01045C0.440415 8.72575 0.641802 8.10594 1.12616 8.10594H7.94256C8.15917 8.10594 8.35115 7.96646 8.41809 7.76045L10.5245 1.27767Z" fill="#982121"/>
</svg>
